                    <svg class="cp" id="play" xmlns="http://www.w3.org/2000/svg" viewBox="0 0 28 28" width="24" height="24">
                        <circle cx="14" cy="14" r="13" fill="none" stroke="#000000" />
                        <path d="M18.3906 14.846C18.0371 16.189 16.3667 17.138 13.0257 19.0361C9.796 20.8709 8.1812 21.7884 6.87983 21.4196C6.3418 21.2671 5.85159 20.9776 5.45624 20.5787C4.5 19.6139 4.5 17.7426 4.5 14C4.5 10.2574 4.5 8.3861 5.45624 7.42132C5.85159 7.02245 6.3418 6.73288 6.87983 6.58042C8.1812 6.21165 9.796 7.12907 13.0257 8.96393C16.3667 10.86197 18.0371 11.811 18.3906 13.154C18.5365 13.7084 18.5365 14.2916 18.3906 14.846Z" transform="scale(0.6) translate(12,9)" fill="none" stroke="#000000" stroke-width="1.5" stroke-linejoin="miter"/>
                    </svg>
